<svg width="24" height="25" viewBox="0 0 24 25" fill="none" xmlns="http://www.w3.org/2000/svg">
<path d="M17.5695 2.11308C16.9448 2.73069 16.3726 3.40008 15.8639 4.11384L15.7031 4.06206C14.7755 3.76251 13.8142 3.57759 12.8454 3.51472C12.5537 3.49253 11.4653 3.49253 11.1099 3.51472C10.0365 3.58499 9.21359 3.74401 8.2785 4.06576C8.2411 4.08056 8.20744 4.09165 8.17377 4.10275C7.64639 3.39268 7.05916 2.72699 6.41208 2.11678C9.51655 0.54502 13.1484 0.356408 16.3988 1.59533C16.7466 1.72476 17.087 1.87639 17.4199 2.03912L17.5695 2.11308Z" fill="#F00500"/>
<path d="M23.3595 16.1406C22.8882 17.4683 22.1813 18.6998 21.2649 19.7723C20.7675 20.3492 20.2176 20.8781 19.6266 21.3588C18.2427 22.4609 16.6269 23.2487 14.9026 23.6629C12.995 24.1177 11.0052 24.1177 9.09761 23.6629C7.36958 23.2487 5.7575 22.4609 4.37358 21.3588C3.78261 20.8781 3.23278 20.3492 2.73531 19.7723C0.0983783 16.6916 -0.702053 12.4608 0.640726 8.64791C0.895069 7.94154 1.213 7.26106 1.59451 6.61386C1.77031 6.318 1.98725 5.98516 2.09198 5.84832C2.45105 7.37571 2.89241 8.71818 3.05698 9.20265C3.04576 9.22854 3.0308 9.25812 3.01584 9.28401C2.14434 11.0296 1.67306 12.7123 1.56085 14.5023C1.56085 14.5244 1.55711 14.5503 1.55711 14.5725C1.52718 15.1088 1.54215 15.364 1.63191 15.7005C1.91244 16.7545 2.77646 17.9158 4.13046 19.0548C6.34847 20.9187 9.3557 22.2649 11.6336 22.4202C14.0087 22.5793 17.5134 21.2072 19.8473 19.2028C20.2139 18.881 20.558 18.5408 20.8797 18.1783C21.1116 17.9121 21.4557 17.4535 21.4295 17.4535C21.422 17.4535 21.4295 17.4461 21.4445 17.4387C21.4557 17.4313 21.4669 17.4202 21.4594 17.4128C21.4557 17.4091 21.4632 17.398 21.4744 17.3943C21.4856 17.3906 21.4931 17.3832 21.4893 17.3758C21.4856 17.3684 21.4893 17.361 21.5043 17.3573C21.5155 17.3536 21.5193 17.3425 21.5155 17.3351C21.5118 17.3277 21.5155 17.3203 21.523 17.3203C21.5305 17.3203 21.538 17.3092 21.538 17.3018C21.538 17.2944 21.5454 17.2834 21.5529 17.2834C21.5604 17.2834 21.5679 17.276 21.5679 17.2686C21.5791 17.239 21.5978 17.2094 21.6165 17.1835C21.6726 17.0984 21.897 16.7027 21.927 16.6362C22.1402 16.1591 22.2748 15.7338 22.3384 15.3085C22.3683 15.1051 22.387 14.7316 22.3721 14.6428C22.3683 14.628 22.3683 14.6021 22.3646 14.5614C22.3571 14.4875 22.3534 14.3765 22.3459 14.2656C22.3384 14.0991 22.3234 13.8662 22.3122 13.7515C22.1514 12.0725 21.7175 10.7004 20.8946 9.24703C20.861 9.19155 20.831 9.13608 20.8123 9.0917C20.8049 9.08061 20.8011 9.06951 20.7974 9.06211C20.9133 8.71818 21.3883 7.27955 21.7661 5.63382L21.7736 5.64122L21.8297 5.71519C21.927 5.84463 22.185 6.22924 22.301 6.41416C22.8284 7.26476 23.2398 8.17823 23.5316 9.13238C24.2086 11.429 24.1524 13.8773 23.3595 16.1406Z" fill="#F00500"/>
<path d="M18.5046 11.7212C18.4934 11.7804 18.3176 11.9579 18.1418 12.0873C17.6256 12.4608 16.7017 12.8085 15.7629 12.9749C15.228 13.071 14.6932 13.0858 14.5323 13.0082C14.4276 12.9564 14.4126 12.9157 14.45 12.7826C14.5286 12.5052 14.7829 12.202 15.1794 11.9172C15.3814 11.773 16.2005 11.2811 16.5821 11.074C17.2104 10.7337 17.7191 10.5303 18.0632 10.4823C18.1717 10.4675 18.3026 10.4638 18.3438 10.4823C18.4111 10.5081 18.4859 10.7042 18.5158 10.9408C18.5308 11.0666 18.5233 11.6213 18.5046 11.7212Z" fill="black"/>
<path d="M9.69235 12.9453C9.66991 12.9897 9.5577 13.0377 9.43052 13.0562C9.30335 13.0747 8.91436 13.0636 8.69368 13.0377C7.90072 12.9342 7.05915 12.6938 6.44573 12.3979C6.10162 12.2315 5.85475 12.0651 5.67148 11.8839L5.56675 11.7766L5.55553 11.6361C5.53683 11.392 5.54057 11.0074 5.57049 10.8706C5.58919 10.7559 5.63033 10.645 5.68644 10.5451C5.71636 10.5081 5.71636 10.5081 5.85102 10.5081C6.01559 10.5081 6.15398 10.534 6.3784 10.6043C6.83847 10.7448 7.52295 11.0851 8.35705 11.5806C9.04527 11.9874 9.30335 12.1871 9.50159 12.4608C9.63624 12.6309 9.72601 12.8713 9.69235 12.9453Z" fill="black"/>
<path d="M14.9887 18.0933C14.9887 18.1044 14.9438 18.2819 14.8877 18.4927C14.8316 18.7035 14.7867 18.8736 14.7867 18.881C14.7456 18.8847 14.7082 18.8884 14.667 18.8847H14.5473L14.3828 19.2693C14.293 19.4801 14.2107 19.6761 14.1995 19.7057L14.177 19.7575L14.0985 19.6318L14.0199 19.506V18.4816L13.99 18.489C13.9264 18.5038 13.4739 18.563 13.2756 18.5814C12.4565 18.6628 11.6336 18.6443 10.8182 18.5297C10.6873 18.5112 10.5751 18.4964 10.5713 18.5001C10.5676 18.5038 10.5713 18.7405 10.5788 19.0326L10.59 19.5578L10.5265 19.6539C10.4928 19.7057 10.4591 19.7501 10.4591 19.7538C10.4479 19.7649 10.4105 19.7057 10.3245 19.5356C10.231 19.3581 10.1636 19.1695 10.115 18.9735L10.0888 18.8662L9.97288 18.8736L9.85693 18.8847L9.82701 18.7479C9.81204 18.6739 9.79334 18.5593 9.78586 18.4964L9.77465 18.378L9.67739 18.293C9.62129 18.2449 9.56518 18.1968 9.55396 18.1894C9.53526 18.1746 9.52778 18.1487 9.52778 18.1266V18.0822L9.99532 18.0859L10.4629 18.0896L10.4778 18.1377L10.4928 18.1857L10.6536 18.1931C10.7434 18.1968 11.0277 18.2042 11.282 18.2116L11.7495 18.2227L11.8692 18.0378L11.9927 17.8529H12.1498L12.146 17.4683L12.1423 17.0837L11.9366 16.9949C11.2745 16.7064 10.8855 16.3773 10.7397 15.9779C10.7097 15.8965 10.7097 15.8669 10.7022 15.4971C10.6985 15.131 10.6985 15.0977 10.7247 15.0163C10.7771 14.8314 10.9229 14.6872 11.1099 14.6391C11.1735 14.6206 11.3419 14.6206 12.2246 14.6206L13.2644 14.6243L13.3803 14.6798C13.5187 14.7464 13.5823 14.7944 13.6609 14.898C13.7506 15.0163 13.7768 15.1088 13.7768 15.3344C13.7768 15.6561 13.7544 15.9335 13.7207 16.0444C13.6721 16.1961 13.5973 16.3403 13.5038 16.4697C13.3168 16.7064 12.9764 16.9431 12.6659 17.0504L12.5762 17.0837L12.5799 17.472L12.5836 17.8603L12.6659 17.8677L12.7482 17.8751L12.8604 18.0415L12.9689 18.2079H13.4701C13.7469 18.2079 13.99 18.2116 14.0125 18.2153C14.0499 18.2227 14.0573 18.219 14.0948 18.1561L14.1396 18.0896H14.5698C14.8914 18.0748 14.9887 18.0822 14.9887 18.0933Z" fill="black"/>
<path d="M13.0138 19.1547C12.9427 19.1953 12.8941 19.2138 12.8829 19.2064C12.8717 19.2027 12.8193 19.1584 12.7632 19.1177L12.6622 19.0363L12.5575 19.1473C12.3293 19.3914 12.3218 19.4025 12.2545 19.4062C12.1498 19.4173 12.1274 19.3988 12.0002 19.2101C11.9329 19.114 11.8805 19.0326 11.8805 19.0326C11.8805 19.0326 11.8319 19.0252 11.7758 19.0215L11.671 19.0104L11.6224 19.1103L11.5738 19.2101L11.4878 19.1843C11.4204 19.1621 11.3531 19.1362 11.2895 19.1066L11.1773 19.0511V18.8403L12.1722 18.844L13.1672 18.8477L13.1709 18.9476C13.1746 19.0659 13.1784 19.0622 13.0138 19.1547Z" fill="black"/>
<path d="M22.3646 14.6428C22.3608 14.628 22.3608 14.6021 22.3571 14.5614C21.4594 14.4653 18.8973 14.4061 16.5184 16.3477C16.5184 16.3477 15.7516 12.8713 12.1609 12.8713C8.57021 12.8713 7.23865 16.3477 7.23865 16.3477C5.22635 14.2064 2.53331 14.3617 1.56083 14.5022C1.56083 14.5244 1.55708 14.5503 1.55708 14.5725C1.52716 15.1088 1.54212 15.3639 1.63189 15.7005C1.91242 16.7545 2.77643 17.9157 4.13043 19.0548C6.34845 20.9187 9.35568 22.2649 11.6335 22.4202C14.0087 22.5792 17.5133 21.2072 19.8473 19.2027C20.2139 18.881 20.558 18.5407 20.8796 18.1783C21.1115 17.912 21.4557 17.4535 21.4295 17.4535C21.422 17.4535 21.4295 17.4461 21.4444 17.4387C21.4557 17.4313 21.4669 17.4202 21.4594 17.4128C21.4557 17.4091 21.4631 17.398 21.4744 17.3943C21.4856 17.3906 21.4931 17.3832 21.4893 17.3758C21.4856 17.3684 21.4893 17.361 21.5043 17.3573C21.5155 17.3536 21.5192 17.3425 21.5155 17.3351C21.5118 17.3277 21.5155 17.3203 21.523 17.3203C21.5305 17.3203 21.5379 17.3092 21.5379 17.3018C21.5379 17.2944 21.5454 17.2833 21.5529 17.2833C21.5604 17.2833 21.5679 17.2759 21.5679 17.2685C21.5791 17.239 21.5978 17.2094 21.6165 17.1835C21.6726 17.0984 21.897 16.7027 21.9269 16.6361C22.1401 16.1591 22.2748 15.7338 22.3384 15.3085C22.3608 15.1051 22.3795 14.7315 22.3646 14.6428ZM13.0137 19.1547C12.9427 19.1953 12.894 19.2138 12.8828 19.2064C12.8716 19.2027 12.8192 19.1584 12.7631 19.1177L12.6621 19.0363L12.5574 19.1473C12.3292 19.3913 12.3218 19.4024 12.2544 19.4061C12.1497 19.4172 12.1273 19.3987 12.0001 19.2101C11.9328 19.114 11.8804 19.0326 11.8804 19.0326C11.8804 19.0326 11.8318 19.0252 11.7757 19.0215L11.6709 19.0104L11.6223 19.1103L11.5737 19.2101L11.4877 19.1842C11.4203 19.162 11.353 19.1362 11.2894 19.1066L11.1772 19.0511V18.8403L12.1721 18.844L13.1671 18.8477L13.1708 18.9475C13.1746 19.0659 13.1783 19.0622 13.0137 19.1547ZM14.8839 18.489C14.8278 18.6998 14.7829 18.8699 14.7829 18.8773C14.7418 18.881 14.7044 18.8847 14.6632 18.881H14.5435L14.3827 19.2693C14.2929 19.4801 14.2106 19.6761 14.1994 19.7057L14.177 19.7575L14.0984 19.6317L14.0199 19.506V18.4816L13.9899 18.489C13.9264 18.5038 13.4738 18.5629 13.2755 18.5814C12.4564 18.6628 11.6335 18.6443 10.8181 18.5296C10.6872 18.5112 10.575 18.4964 10.5713 18.5001C10.5675 18.5038 10.5713 18.7404 10.5788 19.0326L10.59 19.5578L10.5264 19.6539C10.4927 19.7057 10.4591 19.7501 10.4591 19.7538C10.4479 19.7649 10.4105 19.7057 10.3244 19.5356C10.2309 19.3581 10.1636 19.1694 10.115 18.9734L10.0888 18.8662L9.97283 18.8736L9.85688 18.8847L9.82696 18.7478C9.812 18.6739 9.7933 18.5592 9.78582 18.4964L9.7746 18.378L9.67734 18.293C9.62124 18.2449 9.56514 18.1968 9.55392 18.1894C9.53521 18.1746 9.52773 18.1487 9.52773 18.1265V18.0822L9.99527 18.0859L10.4628 18.0896L10.4778 18.1376L10.4927 18.1857L10.6536 18.1931C10.7433 18.1968 11.0276 18.2042 11.2819 18.2116L11.7495 18.2227L11.8692 18.0378L11.9926 17.8529H12.1497L12.146 17.4682L12.1422 17.0836L11.9365 16.9949C11.2745 16.7064 10.8855 16.3773 10.7396 15.9778C10.7097 15.8965 10.7097 15.8669 10.7022 15.4971C10.6985 15.1309 10.6985 15.0977 10.7246 15.0163C10.777 14.8314 10.9229 14.6872 11.1099 14.6391C11.1735 14.6206 11.3418 14.6206 12.2245 14.6206L13.2643 14.6243L13.3803 14.6798C13.5187 14.7463 13.5823 14.7944 13.6608 14.898C13.7506 15.0163 13.7768 15.1088 13.7768 15.3343C13.7768 15.6561 13.7543 15.9335 13.7206 16.0444C13.672 16.196 13.5972 16.3403 13.5037 16.4697C13.3167 16.7064 12.9763 16.9431 12.6659 17.0503L12.5761 17.0836L12.5798 17.4719L12.5836 17.8603L12.6659 17.8677L12.7482 17.8751L12.8604 18.0415L12.9688 18.2079H13.47C13.7468 18.2079 13.9899 18.2116 14.0124 18.2153C14.0498 18.2227 14.0573 18.219 14.0947 18.1561L14.1396 18.0896H14.5697C14.9026 18.0896 14.9998 18.0933 14.9998 18.1043C14.9886 18.1006 14.94 18.2819 14.8839 18.489Z" fill="white"/>
<path d="M22.3346 14.2656C22.3271 14.0991 22.3122 13.8661 22.301 13.7515C22.1401 12.0725 21.7062 10.7004 20.8834 9.24703C20.8497 9.19155 20.8198 9.13608 20.8011 9.0917C20.7936 9.0806 20.7899 9.06951 20.7861 9.06211C20.9021 8.71817 21.3771 7.27955 21.7549 5.63383C22.2673 3.40008 22.5927 0.789113 21.5978 0.0050823C21.5978 0.0050823 19.8772 -0.120658 17.5732 2.11309C16.9485 2.7307 16.3763 3.40008 15.8676 4.11385L15.7067 4.06207C14.7791 3.76251 13.8179 3.5776 12.8491 3.51473C12.5574 3.49254 11.469 3.49254 11.1136 3.51473C10.0401 3.58499 9.21727 3.74402 8.28219 4.06577C8.24479 4.08056 8.21112 4.09166 8.17746 4.10275C7.65007 3.39269 7.06284 2.727 6.41576 2.11679C4.01821 -0.128055 2.23407 0.00138382 2.23407 0.00138382C1.1793 0.811302 1.53837 3.54062 2.08446 5.84833C2.44353 7.37571 2.88489 8.71817 3.04947 9.20265C3.03824 9.22853 3.02328 9.25812 3.00832 9.28401C2.13683 11.0296 1.66554 12.7123 1.55333 14.5022C2.52956 14.3617 5.21886 14.2027 7.2349 16.3477C7.2349 16.3477 8.56646 12.8713 12.1572 12.8713C15.7479 12.8713 16.5147 16.3477 16.5147 16.3477C18.8935 14.4061 21.4556 14.469 22.3533 14.5614C22.3496 14.4875 22.3421 14.3765 22.3346 14.2656ZM3.75639 7.8084C3.75639 7.8084 2.3575 4.35053 2.71658 2.37567C2.77642 2.04282 2.88863 1.75066 3.06443 1.52876C3.06443 1.52876 4.65033 1.68409 7.20871 4.49477C7.20871 4.49477 6.72247 4.72776 6.07166 5.22332C6.07166 5.22332 6.06791 5.22702 6.06417 5.22702C5.35725 5.76327 4.45209 6.61387 3.75639 7.8084ZM9.69229 12.9453C9.66985 12.9897 9.55764 13.0377 9.43047 13.0562C9.3033 13.0747 8.91431 13.0636 8.69363 13.0377C7.90068 12.9342 7.0591 12.6938 6.44569 12.3979C6.10158 12.2315 5.85471 12.0651 5.67144 11.8839L5.56671 11.7766L5.55549 11.6361C5.53679 11.392 5.54053 11.0074 5.57045 10.8706C5.58915 10.7559 5.63029 10.645 5.6864 10.5451C5.71632 10.5081 5.71632 10.5081 5.85097 10.5081C6.01555 10.5081 6.15394 10.534 6.37836 10.6043C6.83842 10.7448 7.5229 11.0851 8.357 11.5806C9.04522 11.9874 9.3033 12.1871 9.50154 12.4608C9.63619 12.6309 9.72596 12.8713 9.69229 12.9453ZM18.5045 11.7212C18.4933 11.7803 18.3175 11.9578 18.1417 12.0873C17.6255 12.4608 16.7017 12.8084 15.7629 12.9749C15.228 13.071 14.6931 13.0858 14.5323 13.0082C14.4276 12.9564 14.4126 12.9157 14.45 12.7826C14.5285 12.5052 14.7829 12.2019 15.1794 11.9172C15.3813 11.7729 16.2005 11.2811 16.582 11.074C17.2104 10.7337 17.719 10.5303 18.0632 10.4822C18.1716 10.4675 18.3025 10.4638 18.3437 10.4822C18.411 10.5081 18.4858 10.7041 18.5157 10.9408C18.5307 11.0666 18.5232 11.6213 18.5045 11.7212ZM17.8836 5.22332L17.8761 5.21962C17.2478 4.72406 16.7765 4.49107 16.7765 4.49107C19.2488 1.68039 20.7786 1.52507 20.7786 1.52507C20.947 1.75066 21.0554 2.03912 21.1153 2.37197C21.4631 4.34684 20.1129 7.8084 20.1129 7.8084C19.5481 6.81357 18.7888 5.93339 17.8836 5.22332Z" fill="#FFA409"/>
<path d="M21.1191 2.37197C20.8273 2.33499 19.4472 2.32759 17.8837 5.22333L17.8762 5.21963C17.2479 4.72407 16.7766 4.49108 16.7766 4.49108C19.2489 1.6804 20.7787 1.52507 20.7787 1.52507C20.9508 1.75067 21.0592 2.03913 21.1191 2.37197Z" fill="#FF9300"/>
<path d="M20.1166 7.80843C19.548 6.8099 18.7925 5.93341 17.8836 5.22334C19.447 2.32761 20.8235 2.335 21.119 2.37199C21.4668 4.35056 20.1166 7.80843 20.1166 7.80843Z" fill="#FF8300"/>
<path d="M21.1753 2.38306C21.1566 2.37936 21.1379 2.37566 21.1192 2.37196L21.1753 2.38306Z" fill="#FF8300"/>
<path d="M7.20896 4.49108C7.20896 4.49108 6.72272 4.72407 6.0719 5.21963C6.0719 5.21963 6.06816 5.22333 6.06442 5.22333C4.44486 2.3239 3.01979 2.33499 2.71308 2.37197C2.77293 2.03913 2.88514 1.74697 3.06094 1.52507C3.06468 1.52507 4.65057 1.6804 7.20896 4.49108Z" fill="#FF9300"/>
<path d="M6.06819 5.22334C5.35752 5.76329 4.45236 6.61019 3.75666 7.80843C3.75666 7.80843 2.35777 4.35056 2.71684 2.37199C3.01981 2.335 4.44862 2.32761 6.06819 5.22334Z" fill="#FF8300"/>
<path d="M2.71677 2.37196C2.69807 2.37566 2.67563 2.37936 2.65693 2.38306L2.71677 2.37196Z" fill="#FF8300"/>
<path d="M16.3316 9.72782C16.3316 9.72782 15.1347 9.80178 15.2843 8.87722C15.4339 7.95265 16.369 7.8417 16.6308 7.87869C16.8926 7.91567 17.9399 8.28549 17.7529 9.06213C17.5659 9.83877 17.3041 9.69084 17.1545 9.72782C17.0048 9.7648 16.3316 9.72782 16.3316 9.72782Z" fill="white"/>
<path d="M7.50429 9.72782C7.50429 9.72782 6.30739 9.80178 6.457 8.87722C6.60662 7.95265 7.5417 7.8417 7.80352 7.87869C8.06534 7.91567 9.11263 8.28549 8.92562 9.06213C8.7386 9.83877 8.47678 9.69084 8.32717 9.72782C8.17755 9.7648 7.50429 9.72782 7.50429 9.72782Z" fill="white"/>
</svg>
