<svg width="643" height="284" viewBox="0 0 643 284" fill="none" xmlns="http://www.w3.org/2000/svg">
<line x1="4.72028" y1="2.29253e-08" x2="4.72027" y2="283.214" stroke="white" stroke-opacity="0.1" stroke-width="1.04863"/>
<line x1="67.6567" y1="2.29253e-08" x2="67.6567" y2="283.214" stroke="white" stroke-opacity="0.1" stroke-width="1.04863"/>
<line x1="130.593" y1="2.29253e-08" x2="130.593" y2="283.214" stroke="white" stroke-opacity="0.1" stroke-width="1.04863"/>
<line x1="193.53" y1="2.29253e-08" x2="193.53" y2="283.214" stroke="white" stroke-opacity="0.1" stroke-width="1.04863"/>
<line x1="256.466" y1="2.29253e-08" x2="256.466" y2="283.214" stroke="white" stroke-opacity="0.1" stroke-width="1.04863"/>
<line x1="319.402" y1="2.29253e-08" x2="319.402" y2="283.214" stroke="white" stroke-opacity="0.1" stroke-width="1.04863"/>
<line x1="382.339" y1="2.29253e-08" x2="382.339" y2="283.214" stroke="white" stroke-opacity="0.1" stroke-width="1.04863"/>
<line x1="445.275" y1="2.29253e-08" x2="445.275" y2="283.214" stroke="white" stroke-opacity="0.1" stroke-width="1.04863"/>
<line x1="508.211" y1="2.29253e-08" x2="508.211" y2="283.214" stroke="white" stroke-opacity="0.1" stroke-width="1.04863"/>
<line x1="571.148" y1="2.29253e-08" x2="571.148" y2="283.214" stroke="white" stroke-opacity="0.1" stroke-width="1.04863"/>
<line x1="634.084" y1="2.29253e-08" x2="634.084" y2="283.214" stroke="white" stroke-opacity="0.1" stroke-width="1.04863"/>
<line x1="643" y1="278.493" y2="278.493" stroke="white" stroke-opacity="0.1" stroke-width="1.04863"/>
<line x1="643" y1="234.438" y2="234.438" stroke="white" stroke-opacity="0.1" stroke-width="1.04863"/>
<line x1="643" y1="190.383" y2="190.383" stroke="white" stroke-opacity="0.1" stroke-width="1.04863"/>
<line x1="643" y1="146.327" y2="146.327" stroke="white" stroke-opacity="0.1" stroke-width="1.04863"/>
<line x1="643" y1="102.272" y2="102.272" stroke="white" stroke-opacity="0.1" stroke-width="1.04863"/>
<line x1="643" y1="58.2161" y2="58.2161" stroke="white" stroke-opacity="0.1" stroke-width="1.04863"/>
<line x1="643" y1="14.1607" y2="14.1607" stroke="white" stroke-opacity="0.1" stroke-width="1.04863"/>
</svg>
