<svg width="24" height="24" viewBox="0 0 24 24" fill="none" xmlns="http://www.w3.org/2000/svg">
<path d="M23.6383 14.9029C22.0356 21.3315 15.5244 25.2438 9.09503 23.6407C2.66833 22.038 -1.24401 15.5265 0.359382 9.09837C1.96136 2.66903 8.47253 -1.24361 14.8999 0.359081C21.3289 1.96177 25.241 8.47404 23.6381 14.903L23.6382 14.9029H23.6383Z" fill="#F7931A"/>
<path d="M17.2901 10.2903C17.5289 8.69337 16.3131 7.83495 14.6506 7.2623L15.1899 5.09911L13.8731 4.771L13.3481 6.87723C13.0019 6.79089 12.6464 6.70954 12.2931 6.62889L12.8219 4.50875L11.5059 4.18063L10.9663 6.34312C10.6798 6.2779 10.3985 6.21344 10.1255 6.14551L10.127 6.13871L8.31111 5.68525L7.96083 7.09168C7.96083 7.09168 8.93778 7.31562 8.91719 7.3294C9.45043 7.46249 9.54685 7.81548 9.53084 8.09526L8.91649 10.5596C8.95321 10.569 9.00084 10.5825 9.05339 10.6036C9.00946 10.5927 8.96271 10.5808 8.9142 10.5691L8.05309 14.0214C7.98792 14.1834 7.82252 14.4265 7.44971 14.3342C7.4629 14.3533 6.49264 14.0954 6.49264 14.0954L5.83887 15.6027L7.55247 16.0299C7.87126 16.1098 8.18366 16.1934 8.4913 16.2721L7.9464 18.4601L9.26167 18.7882L9.8013 16.6234C10.1606 16.721 10.5093 16.811 10.8507 16.8958L10.3129 19.0504L11.6297 19.3785L12.1746 17.1946C14.42 17.6195 16.1084 17.4482 16.8191 15.4172C17.3917 13.782 16.7906 12.8389 15.6092 12.2238C16.4697 12.0254 17.1177 11.4595 17.2905 10.2905L17.2901 10.2902L17.2901 10.2903ZM14.2815 14.5091C13.8745 16.1443 11.1214 15.2604 10.2288 15.0387L10.9519 12.14C11.8444 12.3628 14.7068 12.8038 14.2815 14.5091H14.2815ZM14.6887 10.2666C14.3175 11.754 12.026 10.9983 11.2827 10.813L11.9383 8.18406C12.6816 8.36936 15.0754 8.71518 14.6888 10.2666H14.6887Z" fill="white"/>
</svg>
