<svg width="449" height="209" viewBox="0 0 449 209" fill="none" xmlns="http://www.w3.org/2000/svg">
<rect y="151.502" width="7" height="50.1965" fill="#5CFF9C"/>
<rect x="3" y="144.201" width="1" height="64.7991" fill="#5CFF9C"/>
<rect x="13" y="146.579" width="7" height="22.6238" fill="#5CFF9C"/>
<rect x="16" y="143.288" width="1" height="29.2052" fill="#5CFF9C"/>
<rect x="26" y="151.502" width="7" height="3.65066" fill="#F00090"/>
<rect x="29" y="144.201" width="1" height="38.3319" fill="#F00090"/>
<rect x="39" y="148.996" width="7" height="14.1399" fill="#F00090"/>
<rect x="42" y="146.939" width="1" height="18.2533" fill="#F00090"/>
<rect x="52" y="153.88" width="7" height="22.6238" fill="#F00090"/>
<rect x="55" y="150.59" width="1" height="41.9825" fill="#F00090"/>
<rect x="65" y="170.668" width="7" height="7.30131" fill="#5CFF9C"/>
<rect x="68" y="159.716" width="1" height="25.5546" fill="#5CFF9C"/>
<rect x="78" y="128.686" width="7" height="50.1965" fill="#5CFF9C"/>
<rect x="81" y="121.384" width="1" height="64.7991" fill="#5CFF9C"/>
<rect x="91" y="121.217" width="7" height="17.6748" fill="#5CFF9C"/>
<rect x="94" y="118.646" width="1" height="22.8166" fill="#5CFF9C"/>
<rect x="104" y="121.834" width="7" height="21.9168" fill="#F00090"/>
<rect x="107" y="118.646" width="1" height="28.2926" fill="#F00090"/>
<rect x="117" y="128.326" width="7" height="22.6238" fill="#F00090"/>
<rect x="120" y="115.908" width="1" height="38.3319" fill="#F00090"/>
<rect x="130" y="135.164" width="7" height="44.5406" fill="#F00090"/>
<rect x="133" y="128.686" width="1" height="57.4978" fill="#F00090"/>
<rect x="143" y="164.524" width="7" height="20.5028" fill="#5CFF9C"/>
<rect x="146" y="161.542" width="1" height="26.4672" fill="#5CFF9C"/>
<rect x="156" y="160.359" width="7" height="16.9678" fill="#5CFF9C"/>
<rect x="159" y="157.891" width="1" height="21.9039" fill="#5CFF9C"/>
<rect x="169" y="165.192" width="7" height="17.3406" fill="#F00090"/>
<rect x="172" y="157.891" width="1" height="28.2926" fill="#F00090"/>
<rect x="182" y="145.114" width="7" height="33.7686" fill="#5CFF9C"/>
<rect x="185" y="121.384" width="1" height="64.7991" fill="#5CFF9C"/>
<rect x="195" y="100.393" width="7" height="50.1965" fill="#5CFF9C"/>
<rect x="198" y="93.0917" width="1" height="58.4105" fill="#5CFF9C"/>
<rect x="208" y="27.4983" width="7" height="76.1089" fill="#5CFF9C"/>
<rect x="211" y="16.4279" width="1" height="89.441" fill="#5CFF9C"/>
<rect x="221" y="27.3799" width="7" height="50.1965" fill="#F00090"/>
<rect x="224" y="20.0786" width="1" height="64.7991" fill="#F00090"/>
<rect x="234" y="56.9323" width="7" height="21.2098" fill="#5CFF9C"/>
<rect x="237" y="53.8472" width="1" height="27.3799" fill="#5CFF9C"/>
<rect x="247" y="45.1961" width="7" height="34.6427" fill="#5CFF9C"/>
<rect x="250" y="40.1572" width="1" height="44.7205" fill="#5CFF9C"/>
<rect x="260" y="52.9345" width="7" height="50.1965" fill="#F00090"/>
<rect x="263" y="45.6332" width="1" height="64.7991" fill="#F00090"/>
<rect x="273" y="77.7307" width="7" height="26.1587" fill="#5CFF9C"/>
<rect x="276" y="73.9258" width="1" height="33.7686" fill="#5CFF9C"/>
<rect x="286" y="65.7889" width="7" height="38.1776" fill="#5CFF9C"/>
<rect x="289" y="60.2358" width="1" height="49.2838" fill="#5CFF9C"/>
<rect x="299" y="16.4279" width="7" height="50.1965" fill="#5CFF9C"/>
<rect x="302" y="9.12665" width="1" height="64.7991" fill="#5CFF9C"/>
<rect x="312" y="15.5538" width="7" height="19.0888" fill="#F00090"/>
<rect x="315" y="12.7773" width="1" height="24.6419" fill="#F00090"/>
<rect x="325" y="34.6813" width="7" height="50.1965" fill="#F00090"/>
<rect x="328" y="27.3799" width="1" height="64.7991" fill="#F00090"/>
<rect x="338" y="68.077" width="7" height="16.2608" fill="#5CFF9C"/>
<rect x="341" y="41.9825" width="1" height="44.7205" fill="#5CFF9C"/>
<rect x="351" y="35.5939" width="7" height="50.1965" fill="#5CFF9C"/>
<rect x="354" y="28.2926" width="1" height="64.7991" fill="#5CFF9C"/>
<rect x="364" y="14.9497" width="7" height="21.2098" fill="#5CFF9C"/>
<rect x="367" y="11.8646" width="1" height="27.3799" fill="#5CFF9C"/>
<rect x="377" y="14.1141" width="7" height="9.19091" fill="#F00090"/>
<rect x="380" y="12.7773" width="1" height="11.8646" fill="#F00090"/>
<rect x="390" y="13.6899" width="7" height="50.1965" fill="#F00090"/>
<rect x="393" y="6.38867" width="1" height="137.812" fill="#F00090"/>
<rect x="403" y="41.6226" width="7" height="22.6238" fill="#5CFF9C"/>
<rect x="406" y="38.3318" width="1" height="29.2052" fill="#5CFF9C"/>
<rect x="416" y="25.5546" width="7" height="16.4279" fill="#5CFF9C"/>
<rect x="419" y="20.0786" width="1" height="50.1965" fill="#5CFF9C"/>
<rect x="429" y="14.6026" width="7" height="10.952" fill="#5CFF9C"/>
<rect x="432" width="1" height="28.2926" fill="#5CFF9C"/>
<rect x="442" y="14.6026" width="7" height="4.56332" fill="#F00090"/>
<rect x="445" y="7.30133" width="1" height="23.7293" fill="#F00090"/>
</svg>
