<svg width="26" height="22" viewBox="0 0 26 22" fill="none" xmlns="http://www.w3.org/2000/svg">
<rect width="26" height="22" rx="6" fill="#424242" fill-opacity="0.6"/>
<path d="M10.3333 6.83334C10.0599 6.83334 9.83325 6.60668 9.83325 6.33334V4.33334C9.83325 4.06001 10.0599 3.83334 10.3333 3.83334C10.6066 3.83334 10.8333 4.06001 10.8333 4.33334V6.33334C10.8333 6.60668 10.6066 6.83334 10.3333 6.83334Z" fill="#BFBFBF"/>
<path d="M15.6667 6.83334C15.3934 6.83334 15.1667 6.60668 15.1667 6.33334V4.33334C15.1667 4.06001 15.3934 3.83334 15.6667 3.83334C15.9401 3.83334 16.1667 4.06001 16.1667 4.33334V6.33334C16.1667 6.60668 15.9401 6.83334 15.6667 6.83334Z" fill="#BFBFBF"/>
<path d="M10.6667 12.6665C10.58 12.6665 10.4933 12.6465 10.4133 12.6132C10.3267 12.5799 10.26 12.5332 10.1933 12.4732C10.0733 12.3465 10 12.1799 10 11.9999C10 11.9132 10.02 11.8265 10.0533 11.7465C10.0867 11.6665 10.1333 11.5932 10.1933 11.5265C10.26 11.4665 10.3267 11.4199 10.4133 11.3865C10.6533 11.2865 10.9533 11.3399 11.14 11.5265C11.26 11.6532 11.3333 11.8265 11.3333 11.9999C11.3333 12.0399 11.3267 12.0865 11.32 12.1332C11.3133 12.1732 11.3 12.2132 11.28 12.2532C11.2667 12.2932 11.2467 12.3332 11.22 12.3732C11.2 12.4065 11.1667 12.4399 11.14 12.4732C11.0133 12.5932 10.84 12.6665 10.6667 12.6665Z" fill="#BFBFBF"/>
<path d="M12.9999 12.6666C12.9133 12.6666 12.8266 12.6466 12.7466 12.6133C12.6599 12.5799 12.5933 12.5333 12.5266 12.4733C12.4066 12.3466 12.3333 12.1799 12.3333 11.9999C12.3333 11.9133 12.3533 11.8266 12.3866 11.7466C12.4199 11.6666 12.4666 11.5933 12.5266 11.5266C12.5933 11.4666 12.6599 11.4199 12.7466 11.3866C12.9866 11.2799 13.2866 11.3399 13.4733 11.5266C13.5933 11.6533 13.6666 11.8266 13.6666 11.9999C13.6666 12.0399 13.6599 12.0866 13.6533 12.1333C13.6466 12.1733 13.6333 12.2133 13.6133 12.2533C13.5999 12.2933 13.5799 12.3333 13.5533 12.3733C13.5333 12.4066 13.4999 12.4399 13.4733 12.4733C13.3466 12.5933 13.1733 12.6666 12.9999 12.6666Z" fill="#BFBFBF"/>
<path d="M15.3334 12.6666C15.2467 12.6666 15.1601 12.6466 15.0801 12.6133C14.9934 12.5799 14.9267 12.5333 14.8601 12.4733C14.8334 12.4399 14.8067 12.4066 14.7801 12.3733C14.7534 12.3333 14.7334 12.2933 14.7201 12.2533C14.7001 12.2133 14.6867 12.1733 14.6801 12.1333C14.6734 12.0866 14.6667 12.0399 14.6667 11.9999C14.6667 11.8266 14.7401 11.6533 14.8601 11.5266C14.9267 11.4666 14.9934 11.4199 15.0801 11.3866C15.3267 11.2799 15.6201 11.3399 15.8067 11.5266C15.9267 11.6533 16.0001 11.8266 16.0001 11.9999C16.0001 12.0399 15.9934 12.0866 15.9867 12.1333C15.9801 12.1733 15.9667 12.2133 15.9467 12.2533C15.9334 12.2933 15.9134 12.3333 15.8867 12.3733C15.8667 12.4066 15.8334 12.4399 15.8067 12.4733C15.6801 12.5933 15.5067 12.6666 15.3334 12.6666Z" fill="#BFBFBF"/>
<path d="M10.6667 15.0001C10.58 15.0001 10.4933 14.9801 10.4133 14.9468C10.3333 14.9135 10.26 14.8668 10.1933 14.8068C10.0733 14.6801 10 14.5068 10 14.3335C10 14.2468 10.02 14.1601 10.0533 14.0801C10.0867 13.9935 10.1333 13.9201 10.1933 13.8601C10.44 13.6135 10.8933 13.6135 11.14 13.8601C11.26 13.9868 11.3333 14.1601 11.3333 14.3335C11.3333 14.5068 11.26 14.6801 11.14 14.8068C11.0133 14.9268 10.84 15.0001 10.6667 15.0001Z" fill="#BFBFBF"/>
<path d="M12.9999 15.0001C12.8266 15.0001 12.6533 14.9268 12.5266 14.8068C12.4066 14.6801 12.3333 14.5068 12.3333 14.3335C12.3333 14.2468 12.3533 14.1601 12.3866 14.0801C12.4199 13.9935 12.4666 13.9201 12.5266 13.8601C12.7733 13.6135 13.2266 13.6135 13.4733 13.8601C13.5333 13.9201 13.5799 13.9935 13.6133 14.0801C13.6466 14.1601 13.6666 14.2468 13.6666 14.3335C13.6666 14.5068 13.5933 14.6801 13.4733 14.8068C13.3466 14.9268 13.1733 15.0001 12.9999 15.0001Z" fill="#BFBFBF"/>
<path d="M15.3334 14.9999C15.1601 14.9999 14.9867 14.9266 14.8601 14.8066C14.8001 14.7466 14.7534 14.6733 14.7201 14.5866C14.6867 14.5066 14.6667 14.4199 14.6667 14.3333C14.6667 14.2466 14.6867 14.1599 14.7201 14.0799C14.7534 13.9933 14.8001 13.9199 14.8601 13.8599C15.0134 13.7066 15.2467 13.6333 15.4601 13.6799C15.5067 13.6866 15.5467 13.6999 15.5867 13.7199C15.6267 13.7333 15.6667 13.7533 15.7067 13.7799C15.7401 13.7999 15.7734 13.8333 15.8067 13.8599C15.9267 13.9866 16.0001 14.1599 16.0001 14.3333C16.0001 14.5066 15.9267 14.6799 15.8067 14.8066C15.6801 14.9266 15.5067 14.9999 15.3334 14.9999Z" fill="#BFBFBF"/>
<path d="M18.6666 9.55991H7.33325C7.05992 9.55991 6.83325 9.33324 6.83325 9.05991C6.83325 8.78657 7.05992 8.55991 7.33325 8.55991H18.6666C18.9399 8.55991 19.1666 8.78657 19.1666 9.05991C19.1666 9.33324 18.9399 9.55991 18.6666 9.55991Z" fill="#BFBFBF"/>
<path d="M15.6667 18.1667H10.3333C7.9 18.1667 6.5 16.7667 6.5 14.3333V8.66668C6.5 6.23334 7.9 4.83334 10.3333 4.83334H15.6667C18.1 4.83334 19.5 6.23334 19.5 8.66668V14.3333C19.5 16.7667 18.1 18.1667 15.6667 18.1667ZM10.3333 5.83334C8.42667 5.83334 7.5 6.76001 7.5 8.66668V14.3333C7.5 16.24 8.42667 17.1667 10.3333 17.1667H15.6667C17.5733 17.1667 18.5 16.24 18.5 14.3333V8.66668C18.5 6.76001 17.5733 5.83334 15.6667 5.83334H10.3333Z" fill="#BFBFBF"/>
</svg>
